<svg width="22" height="22" viewBox="0 0 22 22" fill="none" xmlns="http://www.w3.org/2000/svg">
<path d="M3.99984 5.41396L0.756836 2.17196L2.17184 0.756958L5.41384 3.99996H20.6558C20.8117 3.99995 20.9654 4.03637 21.1047 4.10633C21.244 4.17628 21.365 4.27782 21.4581 4.40285C21.5511 4.52789 21.6137 4.67294 21.6407 4.82644C21.6678 4.97995 21.6586 5.13765 21.6138 5.28696L19.2138 13.287C19.1521 13.493 19.0255 13.6737 18.853 13.8022C18.6804 13.9306 18.471 14 18.2558 14H5.99984V16H16.9998V18H4.99984C4.73462 18 4.48027 17.8946 4.29273 17.7071C4.10519 17.5195 3.99984 17.2652 3.99984 17V5.41396ZM5.99984 5.99996V12H17.5118L19.3118 5.99996H5.99984ZM5.49984 22C5.10201 22 4.72048 21.8419 4.43918 21.5606C4.15787 21.2793 3.99984 20.8978 3.99984 20.5C3.99984 20.1021 4.15787 19.7206 4.43918 19.4393C4.72048 19.158 5.10201 19 5.49984 19C5.89766 19 6.27919 19.158 6.5605 19.4393C6.8418 19.7206 6.99984 20.1021 6.99984 20.5C6.99984 20.8978 6.8418 21.2793 6.5605 21.5606C6.27919 21.8419 5.89766 22 5.49984 22ZM17.4998 22C17.102 22 16.7205 21.8419 16.4392 21.5606C16.1579 21.2793 15.9998 20.8978 15.9998 20.5C15.9998 20.1021 16.1579 19.7206 16.4392 19.4393C16.7205 19.158 17.102 19 17.4998 19C17.8977 19 18.2792 19.158 18.5605 19.4393C18.8418 19.7206 18.9998 20.1021 18.9998 20.5C18.9998 20.8978 18.8418 21.2793 18.5605 21.5606C18.2792 21.8419 17.8977 22 17.4998 22Z" fill="#002C3E"/>
</svg>
