<svg width="22" height="20" viewBox="0 0 22 20" fill="none" xmlns="http://www.w3.org/2000/svg">
<path d="M15.95 0C19.2918 0 22 2.7027 22 6.48649C22 14.0541 13.75 18.3784 11 20C8.25 18.3784 0 14.0541 0 6.48649C0 2.7027 2.75 0 6.05 0C8.096 0 9.9 1.08108 11 2.16216C12.1 1.08108 13.904 0 15.95 0ZM12.0274 16.8692C12.9965 16.2681 13.871 15.6703 14.6894 15.0303C17.9685 12.4681 19.8 9.66811 19.8 6.48649C19.8 3.93514 18.1093 2.16216 15.95 2.16216C14.7664 2.16216 13.486 2.77838 12.5554 3.69081L11 5.21946L9.4446 3.69081C8.514 2.77838 7.2336 2.16216 6.05 2.16216C3.916 2.16216 2.2 3.95243 2.2 6.48649C2.2 9.66919 4.0326 12.4681 7.3095 15.0303C8.129 15.6703 9.0035 16.2681 9.9726 16.8681C10.3015 17.0724 10.6271 17.2681 11 17.4865C11.3729 17.2681 11.6985 17.0724 12.0274 16.8692Z" fill="#002C3E"/>
</svg>

