<svg width="69" height="69" viewBox="0 0 69 69" fill="none" xmlns="http://www.w3.org/2000/svg">
<circle cx="34.5" cy="34.5" r="34.5" fill="#F15A22"/>
<g clip-path="url(#clip0_46_2109)">
<path d="M33.9919 18C37.1588 17.9984 40.255 18.9369 42.8883 20.6967C45.5217 22.4564 47.5736 24.9583 48.7844 27.8853C49.9952 30.8124 50.3104 34.0331 49.6899 37.1395C49.0695 40.2458 47.5414 43.0982 45.2992 45.3352C43.0569 47.5723 40.2014 49.0935 37.0943 49.7061C33.9871 50.3187 30.7681 49.9952 27.8448 48.7766C24.9216 47.5579 22.4257 45.499 20.6732 42.8605C18.9206 40.222 17.9903 37.1226 18.0001 33.9549C18.0217 29.7229 19.7148 25.6711 22.7104 22.6825C25.7059 19.6939 29.761 18.0108 33.9919 18ZM33.9919 48.6458C36.8872 48.6474 39.718 47.7906 42.1268 46.1837C44.5355 44.5767 46.414 42.2917 47.525 39.6173C48.636 36.9429 48.9296 33.9992 48.3687 31.1579C47.8078 28.3167 46.4176 25.7055 44.3738 23.6542C42.3299 21.603 39.7241 20.2037 36.8855 19.6331C34.0469 19.0625 31.1029 19.3463 28.4255 20.4486C25.7481 21.5509 23.4573 23.4222 21.8427 25.8262C20.2281 28.2301 19.3621 31.0588 19.3539 33.9549C19.3507 35.8809 19.7267 37.7887 20.4606 39.5693C21.1945 41.3499 22.2718 42.9686 23.6311 44.3328C24.9903 45.6969 26.6049 46.78 28.3826 47.52C30.1603 48.26 32.0663 48.6426 33.9919 48.6458Z" fill="white"/>
<path d="M31.1284 31.9687V27.6271C31.1284 26.9787 31.3253 26.8064 31.9489 26.8064H36.913C37.9335 26.8068 38.9206 27.1703 39.6978 27.8319C40.4749 28.4935 40.9915 29.41 41.1551 30.4176C41.3077 31.4496 41.0888 32.5024 40.5372 33.3879C39.9856 34.2733 39.1373 34.9339 38.1438 35.2516C37.5843 35.3959 37.0056 35.4513 36.429 35.4158C35.2884 35.4158 34.1561 35.4158 33.0156 35.4158C32.6053 35.4158 32.4248 35.4979 32.4412 35.9575C32.4822 37.2378 32.2935 36.9998 33.4751 37.0162C34.2956 37.0162 35.1736 37.0162 36.0187 37.0162C36.47 37.0162 36.8392 37.1721 36.8392 37.6728C36.8392 38.1734 36.4864 38.354 36.0187 38.3622C34.9848 38.3622 33.951 38.3622 32.9171 38.3622C32.5479 38.3622 32.392 38.4278 32.4248 38.83C32.4577 39.2321 32.4248 39.782 32.4248 40.258C32.4248 40.7341 32.4248 41.1937 31.7602 41.2347C31.2761 41.2347 31.0792 40.9721 31.071 40.2909C31.071 39.7984 31.071 39.2978 31.071 38.8054C31.071 38.4442 30.9561 38.354 30.6197 38.3622C29.5859 38.3622 28.5438 38.3622 27.51 38.3622C26.9274 38.3622 26.6074 37.9928 26.6895 37.5414C26.7269 37.3765 26.8259 37.232 26.9661 37.1375C27.1064 37.0429 27.2774 37.0054 27.4443 37.0326C28.4782 37.0326 29.512 37.0326 30.5458 37.0326C30.9233 37.0326 31.0464 36.9259 31.0382 36.5402C31.1284 34.989 31.1284 33.4789 31.1284 31.9687ZM32.4823 31.0413C32.4823 31.8621 32.4823 32.6171 32.4823 33.3968C32.4823 33.8646 32.5561 34.037 33.073 34.0205C34.3941 33.9795 35.7151 34.0205 37.0443 34.0205C37.2625 34.0322 37.4811 34.0101 37.6925 33.9549C38.383 33.7729 38.9845 33.3476 39.3864 32.7572C39.7882 32.1668 39.9633 31.451 39.8794 30.7418C39.7955 30.0325 39.4583 29.3773 38.9298 28.897C38.4013 28.4167 37.7172 28.1435 37.0033 28.1277C35.633 28.0867 34.271 28.1277 32.9007 28.1277C32.5315 28.1277 32.4412 28.2673 32.4494 28.6038C32.4987 29.3835 32.4905 30.2124 32.4905 31.0413H32.4823Z" fill="white"/>
</g>
<defs>
<clipPath id="clip0_46_2109">
<rect width="32" height="32" fill="white" transform="translate(18 18)"/>
</clipPath>
</defs>
</svg>
